:FULLY-SPECIFIED
:FORCE-ALL-JOINTS-BE-3DOF
:DEGREES
136
root 7.80087 16.6373 -26.3232 -9.74353 9.93424 4.12021
lfemur -6.25898 13.3527 -20.3695
ltibia 34.2343 -0 0
lfoot -18.2526 -10.6173 -0.0909208
ltoes 22.5112 -0 0
rfemur -97.8661 -27.5704 54.8426
rtibia 78.7529 -0 0
rfoot 6.59806 26.6339 0.429518
rtoes -37.5002 0 0
lowerback 16.6665 -2.97492 -7.97334
upperback 5.372 -5.23248 -1.19283
thorax -2.96211 -2.61128 4.2016
lowerneck -12.3649 -0.991848 -0.0128131
upperneck 0.823481 -1.46627 3.16836
head 2.45203 -0.616366 0.940283
lclavicle 2.47238e-15 1.43125e-14 0
lhumerus -39.0296 -21.7934 90.659
lradius 50.4848 -0 0
lwrist 13.0727 0 0
lhand 11.4422 7.159 0.0187377
lfingers 7.12502 -0 0
lthumb 36.496 33.3774 0.046829
rclavicle 2.47238e-15 1.43125e-14 0
rhumerus -45.282 -19.0958 -58.4379
rradius 78.8552 -0 0
rwrist -19.0859 0 0
rhand -14.7284 -41.0407 5.6869
rfingers 7.12502 -0 0
rthumb 1.85941 40.3507 -19.6717
137
root 7.75703 16.6125 -26.3176 -9.4883 10.7361 4.08913
lfemur -6.9345 13.674 -20.2178
ltibia 34.883 -0 0
lfoot -18.6726 -10.9898 -0.115696
ltoes 21.3914 -0 0
rfemur -98.7725 -27.5679 54.4888
rtibia 83.9979 -0 0
rfoot 9.70473 27.008 0.344579
rtoes -35.7165 0 0
lowerback 16.6729 -3.2244 -8.10315
upperback 5.31131 -5.58948 -1.32877
thorax -2.98498 -2.78326 4.19433
lowerneck -12.2985 -1.07869 -0.147227
upperneck 0.679782 -1.56834 3.40578
head 2.39785 -0.661803 1.03585
lclavicle 2.47238e-15 1.43125e-14 0
lhumerus -38.537 -22.7558 90.5587
lradius 50.0369 -0 0
lwrist 12.7513 0 0
lhand 12.3437 7.50636 0.00902233
lfingers 7.12502 -0 0
lthumb 37.3518 33.5295 0.0485926
rclavicle 2.47238e-15 1.43125e-14 0
rhumerus -46.1597 -19.6628 -59.3438
rradius 80.1217 -0 0
rwrist -18.6725 0 0
rhand -20.0262 -45.1209 5.52792
rfingers 7.12502 -0 0
rthumb -5.78381 56.0409 -16.4196
138
root 7.71149 16.5874 -26.3115 -9.20251 11.5847 4.03716
lfemur -7.65307 14.0014 -20.052
ltibia 35.5321 -0 0
lfoot -19.0637 -11.3251 -0.138519
ltoes 20.3261 -0 0
rfemur -99.4677 -27.5992 53.9069
rtibia 89.2795 -0 0
rfoot 12.8658 27.2638 0.231095
rtoes -33.6999 0 0
lowerback 16.6434 -3.48014 -8.21094
upperback 5.23686 -5.94819 -1.45649
thorax -3.00441 -2.95595 4.18023
lowerneck -12.2268 -1.17947 -0.281913
upperneck 0.538171 -1.68847 3.64197
head 2.34382 -0.716514 1.13002
lclavicle 2.47238e-15 1.43125e-14 0
lhumerus -38.0532 -23.7363 90.4849
lradius 49.5856 -0 0
lwrist 12.4266 0 0
lhand 13.2796 7.87407 -0.00158342
lfingers 7.12502 -0 0
lthumb 38.2389 33.6831 0.0481105
rclavicle 2.47238e-15 1.43125e-14 0
rhumerus -47.0376 -20.2041 -60.2782
rradius 81.3696 -0 0
rwrist -18.2105 0 0
rhand -25.2203 -49.0664 5.00652
rfingers 7.12502 -0 0
rthumb -11.7894 69.9495 -11.665
139
root 7.66497 16.5623 -26.3048 -8.88996 12.4681 3.96674
lfemur -8.40066 14.3433 -19.8767
ltibia 36.1658 -0 0
lfoot -19.4118 -11.6011 -0.156606
ltoes 19.3463 -0 0
rfemur -99.9283 -27.6731 53.1186
rtibia 94.4573 -0 0
rfoot 15.9921 27.3735 0.103126
rtoes -31.4921 0 0
lowerback 16.5761 -3.73934 -8.29528
upperback 5.14955 -6.3043 -1.57429
thorax -3.01916 -3.12738 4.15887
lowerneck -12.151 -1.29248 -0.415398
upperneck 0.403367 -1.82468 3.87365
head 2.29182 -0.779555 1.22153
lclavicle 2.47238e-15 1.43125e-14 0
lhumerus -37.5907 -24.7254 90.4481
lradius 49.1445 -0 0
lwrist 12.106 0 0
lhand 14.2421 8.26025 -0.0121067
lfingers 7.12502 -0 0
lthumb 39.1495 33.8346 0.0453631
rclavicle 2.47238e-15 1.43125e-14 0
rhumerus -47.8997 -20.7181 -61.2226
rradius 82.5905 -0 0
rwrist -17.7348 0 0
rhand -30.129 -52.7449 4.18821
rfingers 7.12502 -0 0
rthumb -15.9724 81.7036 -6.31432
140
root 7.61817 16.5375 -26.2972 -8.55443 13.3745 3.8801
lfemur -9.16328 14.708 -19.6964
ltibia 36.7685 -0 0
lfoot -19.703 -11.7958 -0.166877
ltoes 18.4828 -0 0
rfemur -100.13 -27.7952 52.1453
rtibia 99.3909 -0 0
rfoot 18.9947 27.3107 -0.0220592
rtoes -29.1344 0 0
lowerback 16.4688 -3.99911 -8.35469
upperback 5.05024 -6.65346 -1.6805
thorax -3.02798 -3.29558 4.12984
lowerneck -12.0725 -1.41603 -0.546201
upperneck 0.280127 -1.97503 4.09753
head 2.24372 -0.849985 1.30911
lclavicle 2.47238e-15 1.43125e-14 0
lhumerus -37.1629 -25.7137 90.4593
lradius 48.727 -0 0
lwrist 11.7968 0 0
lhand 15.2234 8.66309 -0.0214362
lfingers 7.12502 -0 0
lthumb 40.0756 33.9804 0.0404879
rclavicle 2.47238e-15 1.43125e-14 0
rhumerus -48.7308 -21.2023 -62.1588
rradius 83.7761 -0 0
rwrist -17.2801 0 0
rhand -34.5862 -56.0431 3.17634
rfingers 7.12502 -0 0
rthumb -18.5323 91.1437 -1.23958
141
root 7.5718 16.5132 -26.2883 -8.19966 14.2922 3.77927
lfemur -9.92693 15.1036 -19.5156
ltibia 37.3244 -0 0
lfoot -19.9232 -11.8873 -0.166137
ltoes 17.7669 -0 0
rfemur -100.048 -27.9682 51.0071
rtibia 103.94 -0 0
rfoot 21.7849 27.0508 -0.125512
rtoes -26.6685 0 0
lowerback 16.3192 -4.25656 -8.38772
upperback 4.93974 -6.99133 -1.77348
thorax -3.02962 -3.45857 4.09271
lowerneck -11.9924 -1.54844 -0.672833
upperneck 0.173245 -2.13766 4.31025
head 2.2014 -0.926875 1.39149
lclavicle 2.47238e-15 1.43125e-14 0
lhumerus -36.7839 -26.6919 90.5308
lradius 48.3465 -0 0
lwrist 11.5063 0 0
lhand 16.2156 9.08082 -0.0283073
lfingers 7.12502 -0 0
lthumb 41.0095 34.1169 0.0337829
rclavicle 2.47238e-15 1.43125e-14 0
rhumerus -49.5157 -21.6532 -63.0687
rradius 84.9179 -0 0
rwrist -16.8811 0 0
rhand -38.4438 -58.8708 2.101
rfingers 7.12502 -0 0
rthumb -19.8474 98.0907 2.83763
142
root 7.52657 16.4898 -26.2779 -7.82935 15.2091 3.66602
lfemur -10.6776 15.538 -19.3391
ltibia 37.8179 -0 0
lfoot -20.0582 -11.8534 -0.151317
ltoes 17.2294 -0 0
rfemur -99.6567 -28.1917 49.7228
rtibia 107.964 -0 0
rfoot 24.2737 26.5707 -0.188503
rtoes -24.1357 0 0
lowerback 16.1251 -4.50872 -8.39288
upperback 4.81886 -7.31354 -1.85159
thorax -3.02285 -3.61438 4.04705
lowerneck -11.9123 -1.68804 -0.793795
upperneck 0.0875566 -2.3107 4.50841
head 2.16676 -1.0093 1.46738
lclavicle 2.47238e-15 1.43125e-14 0
lhumerus -36.4683 -27.6507 90.6754
lradius 48.0165 -0 0
lwrist 11.2418 0 0
lhand 17.211 9.51172 -0.0312915
lfingers 7.12502 -0 0
lthumb 41.9431 34.2405 0.0257045
rclavicle 2.47238e-15 1.43125e-14 0
rhumerus -50.2394 -22.0664 -63.9342
rradius 86.0076 -0 0
rwrist -16.5726 0 0
rhand -41.5681 -61.1583 1.10641
rfingers 7.12502 -0 0
rthumb -20.3214 102.238 5.36375
143
root 7.48319 16.4676 -26.2658 -7.44715 16.1134 3.54189
lfemur -11.4015 16.019 -19.1713
ltibia 38.2332 -0 0
lfoot -20.0939 -11.6723 -0.119758
ltoes 16.9014 -0 0
rfemur -98.9281 -28.4625 48.3102
rtibia 111.323 -0 0
rfoot 26.3713 25.8482 -0.194761
rtoes -21.5776 0 0
lowerback 15.8845 -4.75253 -8.3687
upperback 4.68839 -7.61569 -1.91327
thorax -3.0064 -3.76102 3.99241
lowerneck -11.8335 -1.83315 -0.907576
upperneck 0.0279417 -2.49236 4.68859
head 2.14169 -1.09633 1.53549
lclavicle 2.47238e-15 1.43125e-14 0
lhumerus -36.2317 -28.5806 90.9071
lradius 47.7503 -0 0
lwrist 11.0108 0 0
lhand 18.2018 9.95416 -0.0287866
lfingers 7.12502 -0 0
lthumb 42.8687 34.3475 0.0168614
rclavicle 2.47238e-15 1.43125e-14 0
rhumerus -50.8874 -22.4367 -64.7373
rradius 87.0367 -0 0
rwrist -16.3893 0 0
rhand -43.8345 -62.8489 0.338337
rfingers 7.12502 -0 0
rthumb -20.246 103.164 5.92172
144
root 7.44237 16.4468 -26.2517 -7.05669 16.9931 3.40813
lfemur -12.0845 16.5541 -19.017
ltibia 38.5548 -0 0
lfoot -20.0158 -11.3217 -0.0695632
ltoes 16.8139 -0 0
rfemur -97.8348 -28.7747 46.7856
rtibia 113.876 -0 0
rfoot 27.9873 24.8612 -0.133035
rtoes -19.0357 0 0
lowerback 15.5949 -4.98487 -8.31375
upperback 4.5491 -7.89341 -1.95695
thorax -2.97905 -3.8965 3.92837
lowerneck -11.7573 -1.98214 -1.01265
upperneck -0.000676214 -2.68085 4.84728
head 2.12811 -1.18706 1.59452
lclavicle 2.47238e-15 1.43125e-14 0
lhumerus -36.09 -29.4719 91.2403
lradius 47.5616 -0 0
lwrist 10.8205 0 0
lhand 19.1803 10.4065 -0.0190113
lfingers 7.12502 -0 0
lthumb 43.7784 34.4345 0.00800248
rclavicle 2.47238e-15 1.43125e-14 0
rhumerus -51.4451 -22.7584 -65.4602
rradius 87.9969 -0 0
rwrist -16.366 0 0
rhand -45.1191 -63.8884 -0.0679678
rfingers 7.12502 -0 0
rthumb -19.639 100.391 4.19556
145
root 7.40482 16.4278 -26.2353 -6.66159 17.8364 3.26574
lfemur -12.7129 17.1506 -18.8804
ltibia 38.7668 0 0
lfoot -19.8095 -10.7795 0
ltoes 16.9979 0 0
rfemur -96.3483 -29.12 45.1639
rtibia 115.483 0 0
rfoot 29.0298 23.5869 0
rtoes -16.5515 0 0
lowerback 15.2544 -5.20253 -8.22662
upperback 4.40179 -8.14225 -1.98112
thorax -2.93957 -4.01882 3.85448
lowerneck -11.6851 -2.13335 -1.10749
upperneck 0.00666985 -2.87435 4.98096
head 2.12793 -1.28057 1.64317
lclavicle 8.02096e-14 2.54444e-14 0
lhumerus -36.0599 -30.3142 91.6901
lradius 47.4636 0 0
lwrist 10.6782 0 0
lhand 20.1387 10.8673 0
lfingers 7.12502 0 0
lthumb 44.6642 34.4979 0
rclavicle 8.02096e-14 2.54444e-14 0
rhumerus -51.8983 -23.0255 -66.085
rradius 88.8798 0 0
rwrist -16.5373 0 0
rhand -45.291 -64.2115 0
rfingers 7.12502 0 0
rthumb -18.0637 -266.607 0
146
root 7.36986 16.4099 -26.2164 -6.23453 18.7187 3.09069
lfemur -13.3375 17.8559 -18.7704
ltibia 38.869 -0 0
lfoot -19.4311 -9.95127 0.0962767
ltoes 17.5867 -0 0
rfemur -94.3058 -29.4799 43.2515
rtibia 116.278 -0 0
rfoot 29.5886 21.9154 0.185018
rtoes -13.8983 0 0
lowerback 14.8357 -5.42353 -8.09398
upperback 4.23224 -8.38315 -1.97332
thorax -2.88742 -4.13779 3.77503
lowerneck -11.6116 -2.29872 -1.20063
upperneck 0.0526088 -3.08783 5.09176
head 2.14183 -1.38429 1.68284
lclavicle 8.02096e-14 2.54444e-14 0
lhumerus -36.1493 -31.1375 92.2982
lradius 47.4508 -0 0
lwrist 10.5701 0 0
lhand 21.1253 11.3506 0.0277709
lfingers 7.12502 -0 0
lthumb 45.5703 34.5293 -0.00851352
rclavicle 8.02096e-14 2.54444e-14 0
rhumerus -52.2792 -23.2699 -66.6164
rradius 89.6981 -0 0
rwrist -16.9254 0 0
rhand -44.2232 -63.7402 0.623146
rfingers 7.12502 -0 0
rthumb -15.1813 84.0862 -5.2974
147
root 7.33618 16.3926 -26.1952 -5.75203 19.7098 2.86571
lfemur -14.0126 18.6955 -18.6914
ltibia 38.8793 -0 0
lfoot -18.8639 -8.79297 0.217534
ltoes 18.6422 -0 0
rfemur -91.6112 -29.8032 40.8786
rtibia 116.522 -0 0
rfoot 29.8308 19.7945 0.399912
rtoes -10.8618 0 0
lowerback 14.321 -5.66392 -7.90691
upperback 4.0288 -8.63637 -1.9259
thorax -2.82362 -4.26286 3.69358
lowerneck -11.5312 -2.4889 -1.30017
upperneck 0.133391 -3.3345 5.18506
head 2.1681 -1.50475 1.71604
lclavicle 8.02096e-14 2.54444e-14 0
lhumerus -36.3522 -31.9741 93.0845
lradius 47.5036 -0 0
lwrist 10.4774 0 0
lhand 22.1846 11.8689 0.0602273
lfingers 7.12502 -0 0
lthumb 46.5379 34.5265 -0.0186586
rclavicle 8.02096e-14 2.54444e-14 0
rhumerus -52.629 -23.5195 -67.0794
rradius 90.4708 -0 0
rwrist -17.5063 0 0
rhand -41.9737 -62.4856 1.7411
rfingers 7.12502 -0 0
rthumb -11.2845 74.7141 -10.185
148
root 7.30354 16.3756 -26.1718 -5.22335 20.7892 2.60149
lfemur -14.7296 19.6446 -18.6402
ltibia 38.8094 -0 0
lfoot -18.1341 -7.35757 0.34889
ltoes 20.0883 -0 0
rfemur -88.3415 -30.0281 38.1017
rtibia 116.264 -0 0
rfoot 29.7805 17.2866 0.631378
rtoes -7.50242 0 0
lowerback 13.722 -5.91738 -7.67071
upperback 3.79611 -8.89651 -1.84468
thorax -2.74924 -4.39154 3.60869
lowerneck -11.445 -2.70032 -1.40391
upperneck 0.244473 -3.60987 5.26217
head 2.2051 -1.6397 1.74309
lclavicle 8.02096e-14 2.54444e-14 0
lhumerus -36.6634 -32.8164 94.0308
lradius 47.6144 -0 0
lwrist 10.4005 0 0
lhand 23.303 12.4182 0.0942719
lfingers 7.12502 -0 0
lthumb 47.5554 34.4956 -0.029181
rclavicle 8.02096e-14 2.54444e-14 0
rhumerus -52.9472 -23.7623 -67.4863
rradius 91.199 -0 0
rwrist -18.2457 0 0
rhand -38.6682 -60.4869 3.20159
rfingers 7.12502 -0 0
rthumb -6.45394 65.1607 -14.4514
